<svg id="Capa_1" enable-background="new 0 0 511.98 511.98" height="512" viewBox="0 0 511.98 511.98" width="512" xmlns="http://www.w3.org/2000/svg"><g><path d="m448.751 461.501-18.145-20.271c-5.106-5.705-3.338-14.711 3.547-18.06l58.848-28.631c7.235-3.52 8.732-13.179 2.903-18.724l-42.381-40.319c-5.305-5.047-4.624-13.695 1.404-17.85l44.573-30.72c6.477-4.464 6.682-13.959.404-18.699l-40.867-30.85c-5.582-4.214-6.158-12.388-1.221-17.342l38.663-38.807c6.689-6.714 2.873-18.182-6.505-19.55l-54.676-7.974c-6.679-.974-11.097-7.45-9.568-14.024l11.444-49.182c1.987-8.538-5.904-16.084-14.345-13.717l-55.61 15.593c-5.088 1.426-10.494-.787-13.12-5.372l-28.603-49.942c-3.544-6.188-11.799-7.708-17.315-3.188l-44.882 36.777c-4.25 3.483-10.367 3.483-14.618 0l-44.882-36.777c-5.516-4.52-13.771-3-17.315 3.188l-28.604 49.943c-2.626 4.585-8.032 6.799-13.12 5.372l-55.61-15.593c-8.441-2.367-16.332 5.178-14.345 13.717l11.444 49.182c1.53 6.574-2.889 13.05-9.567 14.024l-54.676 7.974c-9.378 1.368-13.194 12.836-6.505 19.55l38.663 38.807c4.937 4.955 4.361 13.128-1.222 17.342l-40.867 30.85c-6.278 4.739-6.073 14.235.404 18.699l44.573 30.72c6.028 4.155 6.709 12.803 1.404 17.85l-42.381 40.319c-5.829 5.545-4.331 15.204 2.903 18.724l58.848 28.631c6.885 3.35 8.654 12.355 3.547 18.06l-18.144 20.271c-6.649 7.428-1.377 19.222 8.592 19.222h368.338c9.969 0 15.241-11.795 8.592-19.223z" fill="#daa985"/><path d="m351.126 400.924c-7.354-8.758-5.832-21.782 3.267-28.71 30.443-23.179 49.62-56.942 49.62-94.538 0-69.898-66.272-126.562-148.023-126.562s-148.023 56.664-148.023 126.562c0 37.596 19.176 71.359 49.62 94.538 9.099 6.928 10.621 19.952 3.267 28.71-18.121 21.58-29.036 49.415-29.036 79.8h248.344c0-30.385-10.914-58.22-29.036-79.8z" fill="#f9e9cd"/><path d="m255.99 151.114c-64.031 0-118.562 34.764-139.195 83.419 4.661 2.341 9.971 3.701 15.756 3.701 6.165 0 7.736-1.057 37.866-7.038l2.033 3.8c9.452 17.672 31.099 24.403 48.8 15.694l34.739-17.095 34.739 17.094c17.691 8.708 39.345 1.982 48.799-15.691l2.034-3.802 30.643 6.3c8.491 1.746 16.373.43 22.992-2.933-20.623-48.672-75.162-83.449-139.206-83.449z" fill="#f8c7a5"/><path d="m262.897 136.068 26.512-18.947c5.739-4.101 13.766-2.327 17.242 3.81l7.69 13.577c2.437 4.303 7.285 6.646 12.171 5.882l40.404-6.319c7.819-1.223 13.982 6.553 11.005 13.887l-6.153 15.157c-1.471 3.624-1.064 7.739 1.088 11.005l20.792 31.546c3.014 4.573-1.006 10.508-6.371 9.405l-50.272-10.334c-5.151-1.059-10.385 1.395-12.866 6.032l-6.653 12.436c-3.021 5.646-9.973 7.882-15.718 5.055l-40.533-19.945c-3.307-1.627-7.182-1.627-10.489 0l-40.533 19.945c-5.745 2.827-12.698.591-15.718-5.055l-6.653-12.436c-2.481-4.637-7.715-7.091-12.865-6.032l-50.272 10.334c-5.365 1.103-9.385-4.832-6.371-9.405l20.792-31.546c2.152-3.265 2.559-7.381 1.088-11.005l-6.153-15.157c-2.977-7.333 3.186-15.11 11.005-13.887l40.404 6.319c4.886.764 9.734-1.579 12.171-5.882l7.69-13.577c3.476-6.137 11.504-7.911 17.242-3.81l26.511 18.947c4.131 2.952 9.681 2.952 13.813 0z" fill="#daa985"/><path d="m306.037 480.724c0-30.171-22.407-54.63-50.047-54.63s-50.047 24.459-50.047 54.63z" fill="#f8c7a5"/><g><g><g><g><ellipse cx="177.613" cy="307.889" fill="#ea9ea8" rx="28.919" ry="23.03"/></g><g><ellipse cx="334.367" cy="307.889" fill="#ea9ea8" rx="28.92" ry="23.03"/></g></g></g></g><path d="m71.583 269.52h-7.432c-4.143 0-7.5 3.357-7.5 7.5s3.357 7.5 7.5 7.5h7.432c4.143 0 7.5-3.357 7.5-7.5s-3.358-7.5-7.5-7.5zm17.293-70.08c4.143 0 7.5-3.357 7.5-7.5s-3.357-7.5-7.5-7.5h-5.373c-4.143 0-7.5 3.357-7.5 7.5s3.357 7.5 7.5 7.5zm103.878-49.105-9.221 9.221c-2.929 2.93-2.929 7.678 0 10.607 2.931 2.929 7.678 2.928 10.607 0l9.221-9.221c2.929-2.93 2.929-7.678 0-10.607-2.93-2.927-7.678-2.927-10.607 0zm-74.749-28.306c-2.929 2.93-2.929 7.678 0 10.607l6.766 6.766c2.931 2.929 7.678 2.928 10.607 0 2.929-2.93 2.929-7.678 0-10.607l-6.766-6.766c-2.93-2.928-7.678-2.928-10.607 0zm265.363 0-6.766 6.766c-2.929 2.93-2.929 7.678 0 10.607 2.931 2.929 7.678 2.928 10.607 0l6.766-6.766c2.929-2.93 2.929-7.678 0-10.607-2.929-2.928-7.677-2.928-10.607 0zm-134.878-3.098v11.784c0 4.143 3.357 7.5 7.5 7.5s7.5-3.357 7.5-7.5v-11.784c0-4.143-3.357-7.5-7.5-7.5s-7.5 3.357-7.5 7.5zm-167.383 297.494-58.849-28.631c-2.534-1.232-3.059-4.6-1.015-6.546l42.38-40.318c8.78-8.352 7.604-22.621-2.317-29.46l-44.573-30.719c-2.254-1.554-2.352-4.87-.141-6.538l40.867-30.85c9.213-6.955 10.157-20.451 2.017-28.622l-38.664-38.808c-2.342-2.352-1.009-6.356 2.274-6.834l54.677-7.974c11.013-1.607 18.312-12.305 15.79-23.146l-11.444-49.18c-.695-2.991 2.073-5.627 5.016-4.796l55.611 15.594c8.408 2.357 17.314-1.29 21.651-8.867l28.605-49.942c1.239-2.167 4.126-2.694 6.053-1.115l44.882 36.777c6.99 5.729 17.135 5.729 24.125 0l44.882-36.777c1.925-1.575 4.811-1.056 6.054 1.115l28.604 49.941c4.341 7.58 13.246 11.224 21.654 8.868l16.098-4.515c3.988-1.119 6.314-5.259 5.196-9.247-1.118-3.987-5.251-6.31-9.247-5.196l-16.096 4.515c-1.785.498-3.669-.272-4.589-1.879l-28.604-49.942c-5.851-10.217-19.48-12.716-28.578-5.262l-44.882 36.777c-1.48 1.213-3.629 1.213-5.109 0l-44.882-36.777c-9.129-7.479-22.746-4.923-28.577 5.262l-28.605 49.943c-.919 1.605-2.812 2.379-4.586 1.878l-55.61-15.594c-13.922-3.9-26.958 8.531-23.675 22.639l11.444 49.181c.533 2.296-1.006 4.563-3.345 4.903l-54.678 7.974c-15.469 2.258-21.766 21.192-10.735 32.266l38.663 38.806c1.725 1.732 1.528 4.589-.427 6.064l-40.867 30.85c-10.345 7.81-10.013 23.502.666 30.861l44.572 30.719c2.11 1.454 2.349 4.475.491 6.241l-42.38 40.318c-9.611 9.142-7.137 25.1 4.791 30.902l58.849 28.631c2.396 1.165 3.038 4.305 1.24 6.314l-18.144 20.27c-10.98 12.267-2.262 31.725 14.181 31.725h5.665c4.143 0 7.5-3.357 7.5-7.5s-3.357-7.5-7.5-7.5h-5.665c-3.471 0-5.347-4.104-3.005-6.721l18.145-20.272c8.43-9.417 5.521-24.272-5.854-29.806zm227.512-266.09c-2.929 2.93-2.929 7.678 0 10.607l9.221 9.221c2.931 2.929 7.678 2.928 10.607 0 2.929-2.93 2.929-7.678 0-10.607l-9.221-9.221c-2.929-2.927-7.677-2.927-10.607 0zm-114.152 111.228c-11.725 0-21.265 9.54-21.265 21.266 0 4.143 3.357 7.5 7.5 7.5s7.5-3.357 7.5-7.5c0-3.455 2.811-6.266 6.265-6.266s6.265 2.81 6.265 6.266c0 4.143 3.357 7.5 7.5 7.5s7.5-3.357 7.5-7.5c0-11.726-9.539-21.266-21.265-21.266zm234.01-77.123h-5.372c-4.142 0-7.5 3.357-7.5 7.5s3.358 7.5 7.5 7.5h5.372c4.143 0 7.5-3.357 7.5-7.5s-3.357-7.5-7.5-7.5zm30.217 145.621c-1.856-1.765-1.618-4.786.491-6.239l44.573-30.72c10.674-7.356 11.017-23.047.666-30.861l-40.867-30.85c-1.952-1.473-2.154-4.329-.427-6.064l38.662-38.806c11.034-11.074 4.733-30.009-10.735-32.266l-54.677-7.974c-2.332-.339-3.879-2.602-3.345-4.902l11.444-49.183c3.278-14.084-9.731-26.544-23.676-22.638l-4.272 1.198c-3.988 1.119-6.315 5.259-5.196 9.247s5.254 6.316 9.247 5.196l4.272-1.198c2.961-.834 5.708 1.822 5.017 4.795l-11.444 49.183c-2.522 10.84 4.778 21.538 15.79 23.145l54.676 7.974c3.284.478 4.618 4.481 2.275 6.834l-38.663 38.808c-8.148 8.178-7.188 21.673 2.017 28.622l40.867 30.85c2.19 1.652 2.136 4.969-.141 6.537l-44.574 30.721c-9.957 6.863-11.063 21.138-2.317 29.458l42.382 40.32c2.047 1.947 1.513 5.315-1.016 6.545l-58.849 28.631c-11.366 5.529-14.291 20.381-5.854 29.807l18.145 20.272c2.315 2.587.508 6.721-3.005 6.721h-52.72c-1.617-28.252-12.323-55.394-30.57-77.124-4.583-5.457-3.656-13.561 2.066-17.92 33.414-25.44 52.577-62.072 52.577-100.505 0-23.728-7.281-47.044-21.058-67.428-1.097-1.623-2.785-2.753-4.703-3.147l-47.238-9.711c-8.34-1.713-16.974 2.333-20.989 9.841l-6.653 12.436c-1.12 2.093-3.665 2.91-5.793 1.863l-40.533-19.945c-5.357-2.637-11.754-2.635-17.111 0l-40.533 19.945c-2.128 1.048-4.673.229-5.793-1.863l-6.653-12.435c-4.016-7.509-12.648-11.556-20.989-9.842l-47.236 9.711c-1.919.395-3.607 1.524-4.704 3.146-13.776 20.384-21.059 43.7-21.059 67.429 0 38.433 19.163 75.065 52.576 100.505 2.779 2.116 4.52 5.17 4.901 8.6.376 3.385-.63 6.695-2.835 9.319-18.246 21.73-28.952 48.872-30.569 77.124h-11.018c-4.143 0-7.5 3.357-7.5 7.5s3.357 7.5 7.5 7.5h326.637c16.464 0 25.147-19.473 14.181-31.725l-18.143-20.272c-1.786-1.994-1.177-5.139 1.239-6.314l58.849-28.631c11.929-5.802 14.402-21.76 4.792-30.901zm-244.706 143.163c3.253-22.436 20.846-39.631 42.002-39.631s38.749 17.195 42.002 39.631zm99.115 0c-3.443-30.733-27.734-54.631-57.113-54.631s-53.67 23.898-57.113 54.631h-59.289c1.598-24.725 11.028-48.446 27.008-67.478 4.868-5.797 7.09-13.121 6.255-20.624-.839-7.548-4.646-14.251-10.722-18.876-29.655-22.579-46.663-54.862-46.663-88.571 0-19.757 5.81-39.23 16.831-56.509l44.188-9.084c1.879-.386 3.834.526 4.742 2.224l6.653 12.436c4.955 9.261 16.218 12.882 25.643 8.246l40.533-19.945c1.209-.596 2.657-.596 3.866 0l40.532 19.945c9.423 4.634 20.688 1.016 25.643-8.246l6.653-12.436c.907-1.696 2.856-2.61 4.742-2.223l44.189 9.084c11.021 17.279 16.831 36.752 16.831 56.509 0 33.709-17.008 65.992-46.663 88.571-12.545 9.55-14.566 27.473-4.468 39.5 15.981 19.031 25.411 42.752 27.009 67.478h-59.287zm127.294-188.704h7.432c4.143 0 7.5-3.357 7.5-7.5s-3.357-7.5-7.5-7.5h-7.432c-4.143 0-7.5 3.357-7.5 7.5 0 4.142 3.358 7.5 7.5 7.5zm-31.313 100.138c2.931 2.929 7.678 2.928 10.607 0l10.321-10.321c2.929-2.93 2.929-7.678 0-10.607-2.93-2.928-7.678-2.928-10.608 0l-10.321 10.321c-2.928 2.929-2.928 7.677.001 10.607zm-91.572-123.095c-11.726 0-21.265 9.54-21.265 21.266 0 4.143 3.357 7.5 7.5 7.5s7.5-3.357 7.5-7.5c0-3.455 2.811-6.266 6.265-6.266s6.265 2.81 6.265 6.266c0 4.143 3.357 7.5 7.5 7.5s7.5-3.357 7.5-7.5c0-11.726-9.539-21.266-21.265-21.266zm-61.522 30.737c6.979 0 12.636-7.078 12.636-10.594s-5.657-6.367-12.636-6.367-12.636 2.851-12.636 6.367 5.657 10.594 12.636 10.594zm19.529 18.14c-3.123-2.722-7.86-2.397-10.582.727-2.26 2.593-5.52 4.08-8.947 4.08s-6.688-1.487-8.947-4.08c-2.723-3.122-7.46-3.447-10.582-.727-3.122 2.722-3.448 7.459-.727 10.582 5.109 5.862 12.492 9.225 20.256 9.225s15.146-3.362 20.256-9.225c2.721-3.123 2.395-7.861-.727-10.582zm-182.944 53.289c-2.93-2.928-7.678-2.928-10.607 0-2.929 2.93-2.929 7.678 0 10.607l10.321 10.321c2.931 2.929 7.678 2.928 10.607 0 2.929-2.93 2.929-7.678 0-10.607z"/></g></svg>