<?xml version="1.0" encoding="UTF-8"?>
<!DOCTYPE svg PUBLIC "-//W3C//DTD SVG 1.1//EN" "http://www.w3.org/Graphics/SVG/1.1/DTD/svg11.dtd">
<svg xmlns="http://www.w3.org/2000/svg" version="1.1" width="333px" height="331px" style="shape-rendering:geometricPrecision; text-rendering:geometricPrecision; image-rendering:optimizeQuality; fill-rule:evenodd; clip-rule:evenodd" xmlns:xlink="http://www.w3.org/1999/xlink">
<g><path style="opacity:1" fill="#043010" d="M 179.5,9.5 C 181.389,10.322 183.389,11.1553 185.5,12C 189.918,12.2077 194.251,12.8744 198.5,14C 198.833,14.3333 199.167,14.6667 199.5,15C 197.527,15.4955 195.527,15.6621 193.5,15.5C 173.78,12.6539 154.113,12.9873 134.5,16.5C 131.31,16.5592 128.143,16.8926 125,17.5C 123.319,17.3917 122.152,16.7251 121.5,15.5C 140.44,10.0905 159.773,8.0905 179.5,9.5 Z"/></g>
<g><path style="opacity:0.673" fill="#010101" d="M 166.5,20.5 C 168.89,20.6848 169.89,22.0182 169.5,24.5C 168.643,27.1708 168.143,29.8374 168,32.5C 170.229,29.8438 172.062,30.1771 173.5,33.5C 171.209,35.2878 169.043,37.2878 167,39.5C 165.872,41.3453 165.372,43.3453 165.5,45.5C 169.23,45.1459 172.563,43.8126 175.5,41.5C 174.456,39.2324 174.289,36.8991 175,34.5C 176.966,37.601 178.8,40.7676 180.5,44C 180.095,44.9454 179.428,45.6121 178.5,46C 173.596,48.0195 168.596,48.5195 163.5,47.5C 162.846,45.8849 162.346,44.2182 162,42.5C 161.107,43.7112 160.274,43.7112 159.5,42.5C 160.48,41.0186 161.647,39.6853 163,38.5C 164.495,32.5154 165.662,26.5154 166.5,20.5 Z"/></g>
<g><path style="opacity:0.664" fill="#010101" d="M 156.5,31.5 C 158.595,31.7598 159.928,32.9264 160.5,35C 159.777,37.5533 158.444,39.72 156.5,41.5C 159.586,44.9102 158.92,46.9102 154.5,47.5C 154.5,46.5 154.5,45.5 154.5,44.5C 152.712,44.7852 151.045,44.4519 149.5,43.5C 151.149,41.3501 152.982,39.3501 155,37.5C 156.128,35.6547 156.628,33.6547 156.5,31.5 Z"/></g>
<g><path style="opacity:0.69" fill="#020202" d="M 116.5,45.5 C 116.085,47.7468 115.418,49.9135 114.5,52C 115.077,54.137 115.41,56.3037 115.5,58.5C 114.5,58.5 113.5,58.5 112.5,58.5C 112.649,57.448 112.483,56.448 112,55.5C 109.861,58.9393 107.361,62.106 104.5,65C 103.035,65.6013 102.035,65.1013 101.5,63.5C 103.316,61.1831 105.316,59.0165 107.5,57C 106.289,55.8869 106.289,54.7202 107.5,53.5C 105.739,51.7475 104.406,49.7475 103.5,47.5C 105.23,45.2065 106.563,42.7065 107.5,40C 106.241,39.0766 104.908,38.2432 103.5,37.5C 104.752,35.9991 105.752,34.3325 106.5,32.5C 107.598,33.6155 108.765,33.6155 110,32.5C 114.182,33.923 115.349,36.5897 113.5,40.5C 113.784,42.7594 114.784,44.4261 116.5,45.5 Z M 107.5,45.5 C 109.273,46.3143 109.773,47.6476 109,49.5C 108.209,48.255 107.709,46.9217 107.5,45.5 Z"/></g>
<g><path style="opacity:0.732" fill="#010101" d="M 212.5,38.5 C 216.952,39.2559 221.119,40.5892 225,42.5C 225.749,43.635 225.583,44.635 224.5,45.5C 221.446,46.3466 218.446,47.3466 215.5,48.5C 216.736,49.3567 218.069,50.0234 219.5,50.5C 220.833,51.8333 220.833,53.1667 219.5,54.5C 214.205,53.1712 208.872,52.0045 203.5,51C 201.155,49.2759 200.655,47.4426 202,45.5C 207.616,48.0867 212.783,47.2534 217.5,43C 214.509,42.8552 212.842,41.3552 212.5,38.5 Z"/></g>
<g><path style="opacity:0.668" fill="#010102" d="M 116.5,45.5 C 115.465,43.4312 116.132,41.7646 118.5,40.5C 119.799,41.09 120.632,42.09 121,43.5C 121.409,40.6421 120.409,38.3087 118,36.5C 117.002,39.0278 116.169,39.0278 115.5,36.5C 116.195,32.2957 118.529,30.1291 122.5,30C 121.87,31.892 120.87,33.5587 119.5,35C 121.464,35.624 123.131,35.124 124.5,33.5C 125.646,34.1449 126.646,34.9783 127.5,36C 125.833,37 124.167,38 122.5,39C 123.126,39.7504 123.626,40.5838 124,41.5C 125,40.1667 126,40.1667 127,41.5C 127.155,43.856 127.155,46.1893 127,48.5C 128.58,45.7455 129.746,45.9122 130.5,49C 128.78,52.4649 126.113,53.2982 122.5,51.5C 121.378,48.5622 119.378,46.5622 116.5,45.5 Z"/></g>
<g><path style="opacity:1" fill="#052b10" d="M 179.5,9.5 C 236.988,15.9691 279.155,44.6358 306,95.5C 314.271,112.585 319.104,130.585 320.5,149.5C 320.832,158.857 320.498,168.19 319.5,177.5C 318.914,177.709 318.414,178.043 318,178.5C 317.502,175.183 317.335,171.85 317.5,168.5C 316.418,109.016 290.751,63.8493 240.5,33C 225.497,25.0585 209.83,19.2252 193.5,15.5C 195.527,15.6621 197.527,15.4955 199.5,15C 199.167,14.6667 198.833,14.3333 198.5,14C 194.251,12.8744 189.918,12.2077 185.5,12C 183.389,11.1553 181.389,10.322 179.5,9.5 Z"/></g>
<g><path style="opacity:0.655" fill="#010201" d="M 66.5,55.5 C 67.552,55.3505 68.552,55.5172 69.5,56C 74.046,60.8774 78.2127,66.044 82,71.5C 84.0403,73.0406 86.2069,74.3739 88.5,75.5C 89.8333,76.8333 89.8333,78.1667 88.5,79.5C 87.5,80.8333 86.5,80.8333 85.5,79.5C 78.6326,71.7897 71.6326,64.9564 64.5,59C 64.9783,57.6974 65.645,56.5307 66.5,55.5 Z"/></g>
<g><path style="opacity:0.775" fill="#06260f" d="M 152.5,58.5 C 170.365,55.7582 187.698,57.7582 204.5,64.5C 199.65,64.9561 194.983,63.7894 190.5,61C 177.919,58.9384 165.252,58.1051 152.5,58.5 Z"/></g>
<g><path style="opacity:1" fill="#003310" d="M 152.5,58.5 C 165.252,58.1051 177.919,58.9384 190.5,61C 194.983,63.7894 199.65,64.9561 204.5,64.5C 204.393,66.3786 204.893,66.7119 206,65.5C 211.429,69.4666 217.262,72.7999 223.5,75.5C 227.515,79.5126 231.848,83.1793 236.5,86.5C 237.183,86.1373 237.85,85.8039 238.5,85.5C 238.137,87.9115 239.137,89.4115 241.5,90C 241.167,90.3333 240.833,90.6667 240.5,91C 241.448,91.4828 242.448,91.6495 243.5,91.5C 243.167,94.5 244.5,95.8333 247.5,95.5C 246.975,100.34 248.975,103.34 253.5,104.5C 254.298,106.078 254.798,107.744 255,109.5C 257.926,111.531 260.092,113.531 261.5,115.5C 263.716,125.284 267.05,134.618 271.5,143.5C 271.5,144.167 271.5,144.833 271.5,145.5C 271.722,159.522 271.388,173.522 270.5,187.5C 270.258,191.479 269.258,195.146 267.5,198.5C 265.926,198.937 264.759,199.937 264,201.5C 262.972,207.968 260.305,213.634 256,218.5C 255.506,220.134 255.34,221.801 255.5,223.5C 251.515,223.44 249.848,225.44 250.5,229.5C 247.537,229.953 245.204,231.453 243.5,234C 243.966,235.299 243.966,236.799 243.5,238.5C 243.167,239.5 242.5,240.167 241.5,240.5C 241.265,239.903 240.765,239.57 240,239.5C 238.034,241.044 235.868,242.21 233.5,243C 234.214,244.343 233.88,245.676 232.5,247C 229.588,248.782 226.588,250.282 223.5,251.5C 223.5,252.5 223.5,253.5 223.5,254.5C 221.5,254.5 219.5,254.5 217.5,254.5C 217.5,255.5 217.5,256.5 217.5,257.5C 211.144,260.283 204.477,262.283 197.5,263.5C 197.5,264.5 197.5,265.5 197.5,266.5C 197.167,266.5 196.833,266.5 196.5,266.5C 192.426,266.069 188.926,265.736 186,265.5C 179.667,266.833 173.333,268.167 167,269.5C 165.071,268.233 163.238,268.566 161.5,270.5C 160.833,270.5 160.167,270.5 159.5,270.5C 156.177,269.597 153.01,268.264 150,266.5C 149.586,266.957 149.086,267.291 148.5,267.5C 144.889,266.738 141.222,266.238 137.5,266C 133.813,263.715 129.813,262.548 125.5,262.5C 124.22,261.069 122.553,260.402 120.5,260.5C 119.313,258.025 117.313,257.025 114.5,257.5C 112.632,256.737 110.965,255.737 109.5,254.5C 107.573,250.217 104.573,247.551 100.5,246.5C 99.269,245.349 99.269,244.183 100.5,243C 97.7934,242.605 95.1267,242.105 92.5,241.5C 91.8333,241.5 91.5,241.167 91.5,240.5C 92.6744,236.74 91.1744,234.073 87,232.5C 86.2155,230.714 85.0488,229.214 83.5,228C 83.8333,227.667 84.1667,227.333 84.5,227C 82.9391,226.682 81.7724,225.849 81,224.5C 80.6174,225.056 80.1174,225.389 79.5,225.5C 79.2208,222.882 78.5541,220.382 77.5,218C 77.8333,217.667 78.1667,217.333 78.5,217C 75.5293,215.914 73.8626,213.748 73.5,210.5C 72.1401,209.82 70.8068,209.153 69.5,208.5C 69.33,207.178 69.6634,206.011 70.5,205C 68.9278,202.962 67.9278,200.629 67.5,198C 67.8333,197.667 68.1667,197.333 68.5,197C 67.3333,196.5 66.5,195.667 66,194.5C 65.0885,190.116 63.5885,186.116 61.5,182.5C 60.8333,182.5 60.5,182.167 60.5,181.5C 61.6491,181.209 62.3158,180.376 62.5,179C 61.8765,168.346 61.5431,157.513 61.5,146.5C 61.5,146.167 61.5,145.833 61.5,145.5C 62.1174,145.389 62.6174,145.056 63,144.5C 63.9633,138.671 65.2967,133.004 67,127.5C 67.6667,126.833 68.3333,126.167 69,125.5C 70.2985,121.493 71.4652,117.493 72.5,113.5C 72.3284,112.508 72.6618,111.842 73.5,111.5C 74.4959,111.586 75.3292,111.252 76,110.5C 77.1894,106.64 79.5227,103.64 83,101.5C 83.3333,100.167 83.6667,98.8333 84,97.5C 86.1267,95.8863 87.6267,93.8863 88.5,91.5C 89.552,91.6495 90.552,91.4828 91.5,91C 96.0388,85.9281 100.705,81.0947 105.5,76.5C 108.599,76.9077 110.933,75.741 112.5,73C 118.25,70.7129 124.083,68.5463 130,66.5C 130.669,69.0278 131.502,69.0278 132.5,66.5C 132.291,65.914 131.957,65.414 131.5,65C 134.019,64.4136 136.019,63.2469 137.5,61.5C 142.206,59.6253 147.206,58.6253 152.5,58.5 Z M 147.5,98.5 C 147.5,98.8333 147.5,99.1667 147.5,99.5C 147.987,100.473 148.487,101.473 149,102.5C 149.333,114.833 149.667,127.167 150,139.5C 150.75,140.126 151.584,140.626 152.5,141C 161.5,141.667 170.5,141.667 179.5,141C 180.931,140.535 182.097,139.701 183,138.5C 183.333,125.833 183.667,113.167 184,100.5C 186.157,98.1829 187.657,95.5162 188.5,92.5C 189.167,92.5 189.5,92.1667 189.5,91.5C 196.863,91.1694 204.197,91.5027 211.5,92.5C 209.962,94.2433 208.962,96.2433 208.5,98.5C 207.833,98.5 207.5,98.8333 207.5,99.5C 206.356,101.1 205.189,102.767 204,104.5C 203.667,119.5 203.333,134.5 203,149.5C 202.167,153 200,155.167 196.5,156C 175.803,156.799 155.136,156.632 134.5,155.5C 132.238,153.315 130.738,150.648 130,147.5C 129.667,133.167 129.333,118.833 129,104.5C 128.617,103.944 128.117,103.611 127.5,103.5C 125.779,99.7274 123.779,96.0608 121.5,92.5C 128.811,91.3354 136.144,91.1687 143.5,92C 144.733,94.3143 146.067,96.4809 147.5,98.5 Z M 112.5,145.5 C 111.662,145.842 111.328,146.508 111.5,147.5C 107.042,161.263 111.042,171.93 123.5,179.5C 123.5,179.833 123.5,180.167 123.5,180.5C 123.666,188.174 123.5,195.841 123,203.5C 120.948,201.942 118.781,200.608 116.5,199.5C 115.833,199.167 115.167,198.833 114.5,198.5C 110.392,194.606 106.059,190.939 101.5,187.5C 98.1888,182.669 95.0221,177.669 92,172.5C 89.646,166.043 88.4793,159.376 88.5,152.5C 89.475,149.689 90.1417,146.689 90.5,143.5C 90.5,143.167 90.5,142.833 90.5,142.5C 92.9731,138.229 95.4731,133.896 98,129.5C 101.371,126.297 104.538,122.964 107.5,119.5C 109.404,119.262 110.738,118.262 111.5,116.5C 115.094,114.756 118.594,112.756 122,110.5C 122.832,118.521 122.665,126.521 121.5,134.5C 117.348,137.31 114.348,140.976 112.5,145.5 Z M 176.5,100.5 C 176.5,101.167 176.5,101.833 176.5,102.5C 176.5,108.5 176.5,114.5 176.5,120.5C 169.833,120.5 163.167,120.5 156.5,120.5C 156.5,113.833 156.5,107.167 156.5,100.5C 163.167,100.5 169.833,100.5 176.5,100.5 Z M 220.5,116.5 C 223.141,118.804 225.808,121.138 228.5,123.5C 244.655,139.957 247.655,158.624 237.5,179.5C 235.248,182.932 232.748,186.266 230,189.5C 228.961,188.29 227.794,187.29 226.5,186.5C 223.521,182.854 220.188,179.521 216.5,176.5C 217.559,174.466 218.559,172.466 219.5,170.5C 221.008,168.819 222.008,166.819 222.5,164.5C 223.766,160.468 223.766,156.468 222.5,152.5C 220.731,144.97 216.898,138.636 211,133.5C 210.501,127.843 210.334,122.176 210.5,116.5C 210.215,114.712 210.548,113.045 211.5,111.5C 214.366,113.432 217.366,115.099 220.5,116.5 Z M 124.5,224.5 C 124.5,224.167 124.5,223.833 124.5,223.5C 126.241,221.023 127.741,218.356 129,215.5C 129.046,199.766 129.713,184.1 131,168.5C 131.465,167.069 132.299,165.903 133.5,165C 138.754,163.729 144.087,163.229 149.5,163.5C 149.5,183.833 149.5,204.167 149.5,224.5C 141.167,224.5 132.833,224.5 124.5,224.5 Z M 199.5,164.5 C 200.836,166.01 202.003,167.677 203,169.5C 203.333,184.833 203.667,200.167 204,215.5C 205.189,217.233 206.356,218.9 207.5,220.5C 207.557,221.609 207.89,222.609 208.5,223.5C 200.35,224.493 192.017,224.826 183.5,224.5C 183.5,204.167 183.5,183.833 183.5,163.5C 188.88,163.324 194.213,163.658 199.5,164.5 Z M 210.5,182.5 C 211.833,183.5 213.167,184.5 214.5,185.5C 216.091,187.633 218.091,189.299 220.5,190.5C 224.5,195.167 228.833,199.5 233.5,203.5C 232.791,204.404 231.791,204.737 230.5,204.5C 223.833,204.5 217.167,204.5 210.5,204.5C 210.5,197.833 210.5,191.167 210.5,184.5C 210.5,183.833 210.5,183.167 210.5,182.5 Z M 156.5,163.5 C 163.167,163.5 169.833,163.5 176.5,163.5C 176.5,183.833 176.5,204.167 176.5,224.5C 169.833,224.5 163.167,224.5 156.5,224.5C 156.5,204.167 156.5,183.833 156.5,163.5 Z M 138.5,245.5 C 140.465,245.948 140.798,246.948 139.5,248.5C 138.614,247.675 138.281,246.675 138.5,245.5 Z M 192.5,245.5 C 195.293,245.74 195.793,246.74 194,248.5C 192.961,247.756 192.461,246.756 192.5,245.5 Z M 182.5,246.5 C 182.768,248.099 182.434,249.432 181.5,250.5C 181.67,249.178 181.337,248.011 180.5,247C 181.094,246.536 181.761,246.369 182.5,246.5 Z M 168.5,245.5 C 169.815,246.895 169.481,247.895 167.5,248.5C 167.263,247.209 167.596,246.209 168.5,245.5 Z M 153.5,242.5 C 153.012,245.711 153.679,248.544 155.5,251C 153.5,251.667 151.5,251.667 149.5,251C 152.167,248.333 152.167,245.667 149.5,243C 150.793,242.51 152.127,242.343 153.5,242.5 Z"/></g>
<g><path style="opacity:0.745" fill="#010101" d="M 259.5,61.5 C 261.645,61.7377 263.312,62.7377 264.5,64.5C 262.731,66.557 260.731,68.3903 258.5,70C 260.5,71 262.5,72 264.5,73C 261.319,74.842 258.152,74.6753 255,72.5C 254.667,72.8333 254.333,73.1667 254,73.5C 255.175,76.0752 256.008,78.9086 256.5,82C 256.585,85.8009 255.252,86.4676 252.5,84C 251.044,82.2552 249.711,80.4219 248.5,78.5C 249.5,77.8333 250.5,77.1667 251.5,76.5C 251.291,75.914 250.957,75.414 250.5,75C 247.833,74.6667 245.167,74.3333 242.5,74C 239.766,73.2817 239.1,71.7817 240.5,69.5C 247.289,72.7155 248.622,71.3821 244.5,65.5C 244.833,64.5 245.5,63.8333 246.5,63.5C 248.742,65.5388 251.242,67.2054 254,68.5C 256.793,66.91 258.627,64.5766 259.5,61.5 Z"/></g>
<g><path style="opacity:1" fill="#062a10" d="M 137.5,61.5 C 136.019,63.2469 134.019,64.4136 131.5,65C 131.957,65.414 132.291,65.914 132.5,66.5C 131.502,69.0278 130.669,69.0278 130,66.5C 124.083,68.5463 118.25,70.7129 112.5,73C 110.933,75.741 108.599,76.9077 105.5,76.5C 115.082,69.378 125.748,64.378 137.5,61.5 Z"/></g>
<g><path style="opacity:0.661" fill="#010101" d="M 68.5,70.5 C 71.5889,71.7389 74.5889,73.2389 77.5,75C 79.5,79.3333 78.1667,81 73.5,80C 72.33,76.8217 70.33,74.3217 67.5,72.5C 67.8627,71.8165 68.1961,71.1499 68.5,70.5 Z"/></g>
<g><path style="opacity:1" fill="#052a10" d="M 121.5,15.5 C 122.152,16.7251 123.319,17.3917 125,17.5C 128.143,16.8926 131.31,16.5592 134.5,16.5C 81.9694,30.1963 45.4694,62.1963 25,112.5C 6.54027,169.765 16.8736,221.099 56,266.5C 82.3818,294.108 114.549,310.108 152.5,314.5C 152.082,315.222 151.416,315.722 150.5,316C 155.683,317.622 161.016,318.455 166.5,318.5C 169.287,318.426 171.787,317.76 174,316.5C 177.935,317.138 181.769,317.804 185.5,318.5C 129.41,323.203 82.9104,304.537 46,262.5C 28.2915,240.561 17.4581,215.561 13.5,187.5C 12.8082,174.845 12.4748,162.179 12.5,149.5C 18.0334,98.9185 42.0334,59.7518 84.5,32C 96.1973,25.0465 108.531,19.5465 121.5,15.5 Z"/></g>
<g><path style="opacity:1" fill="#052b10" d="M 204.5,64.5 C 217.472,68.9794 228.806,75.9794 238.5,85.5C 237.85,85.8039 237.183,86.1373 236.5,86.5C 231.848,83.1793 227.515,79.5126 223.5,75.5C 217.262,72.7999 211.429,69.4666 206,65.5C 204.893,66.7119 204.393,66.3786 204.5,64.5 Z"/></g>
<g><path style="opacity:0.668" fill="#020202" d="M 65.5,78.5 C 67.6968,79.8446 70.0302,81.0112 72.5,82C 74.0368,83.1096 74.7035,84.6096 74.5,86.5C 72.8008,86.6602 71.1341,86.4935 69.5,86C 68.3442,83.3604 67.0109,80.8604 65.5,78.5 Z"/></g>
<g><path style="opacity:1" fill="#062812" d="M 105.5,76.5 C 100.705,81.0947 96.0388,85.9281 91.5,91C 90.552,91.4828 89.552,91.6495 88.5,91.5C 93.2509,85.413 98.9176,80.413 105.5,76.5 Z"/></g>
<g><path style="opacity:0.365" fill="#062911" d="M 147.5,98.5 C 146.067,96.4809 144.733,94.3143 143.5,92C 136.144,91.1687 128.811,91.3354 121.5,92.5C 123.779,96.0608 125.779,99.7274 127.5,103.5C 123.163,101.011 120.663,97.3445 120,92.5C 120.5,91.3333 121.333,90.5 122.5,90C 130.054,90.6106 137.554,90.4439 145,89.5C 147.017,92.1438 147.85,95.1438 147.5,98.5 Z"/></g>
<g><path style="opacity:1" fill="#05290f" d="M 208.5,98.5 C 208.962,96.2433 209.962,94.2433 211.5,92.5C 204.197,91.5027 196.863,91.1694 189.5,91.5C 189.369,90.7611 189.536,90.0944 190,89.5C 196.806,90.5707 203.639,90.7373 210.5,90C 212.125,92.11 213.458,94.4434 214.5,97C 214,97.5 213.5,98 213,98.5C 211.701,98.0338 210.201,98.0338 208.5,98.5 Z"/></g>
<g><path style="opacity:1" fill="#052910" d="M 238.5,85.5 C 248.459,93.7859 256.125,103.786 261.5,115.5C 260.092,113.531 257.926,111.531 255,109.5C 254.798,107.744 254.298,106.078 253.5,104.5C 248.975,103.34 246.975,100.34 247.5,95.5C 244.5,95.8333 243.167,94.5 243.5,91.5C 242.448,91.6495 241.448,91.4828 240.5,91C 240.833,90.6667 241.167,90.3333 241.5,90C 239.137,89.4115 238.137,87.9115 238.5,85.5 Z"/></g>
<g><path style="opacity:1" fill="#062e13" d="M 176.5,100.5 C 169.833,100.5 163.167,100.5 156.5,100.5C 156.5,107.167 156.5,113.833 156.5,120.5C 163.167,120.5 169.833,120.5 176.5,120.5C 176.5,114.5 176.5,108.5 176.5,102.5C 177.52,106.972 178.187,111.639 178.5,116.5C 178.387,118.641 177.72,120.475 176.5,122C 176.833,123 177.167,124 177.5,125C 177,125.5 176.5,126 176,126.5C 175.667,125.167 175.333,123.833 175,122.5C 171.953,123.048 168.786,123.048 165.5,122.5C 162.842,122.69 160.342,123.357 158,124.5C 157.055,124.095 156.388,123.428 156,122.5C 155.969,114.224 155.136,106.058 153.5,98C 153.667,97.1667 153.833,96.3333 154,95.5C 155.419,96.4601 156.919,97.2935 158.5,98C 164.916,97.8715 170.916,98.7048 176.5,100.5 Z"/></g>
<g><path style="opacity:0.648" fill="#020202" d="M 284.5,98.5 C 285.79,99.0577 286.623,100.058 287,101.5C 290.196,98.4615 291.03,98.9615 289.5,103C 290.167,103.333 290.833,103.667 291.5,104C 288.104,104.579 284.604,105.745 281,107.5C 280.508,106.451 280.674,105.451 281.5,104.5C 280.092,103.757 278.759,102.923 277.5,102C 279.5,101.667 281.5,101.333 283.5,101C 284.252,100.329 284.586,99.4959 284.5,98.5 Z"/></g>
<g><path style="opacity:0.684" fill="#020202" d="M 269.5,100.5 C 270.675,100.281 271.675,100.614 272.5,101.5C 275.519,105.353 279.019,108.687 283,111.5C 284.955,106.801 287.288,106.467 290,110.5C 291.727,110.354 291.894,109.687 290.5,108.5C 291.651,107.269 292.817,107.269 294,108.5C 294.249,107.376 294.749,106.376 295.5,105.5C 296.452,107.045 296.785,108.712 296.5,110.5C 298.591,110.318 300.591,110.652 302.5,111.5C 303.833,112.833 303.833,114.167 302.5,115.5C 301.232,114.572 299.899,114.405 298.5,115C 304.612,117.102 304.946,119.602 299.5,122.5C 296.64,121.82 294.14,120.487 292,118.5C 291.517,119.448 291.351,120.448 291.5,121.5C 287.014,122.006 283.181,120.672 280,117.5C 280.218,119.587 280.051,121.587 279.5,123.5C 278.167,122.5 276.833,121.5 275.5,120.5C 271.024,123.837 267.69,123.004 265.5,118C 265.862,116.775 266.362,115.609 267,114.5C 268.351,116.019 269.851,117.352 271.5,118.5C 272.308,118.192 272.975,117.692 273.5,117C 271.027,115.439 269.027,113.439 267.5,111C 268.047,110.075 268.713,109.242 269.5,108.5C 271.04,110.387 272.707,112.22 274.5,114C 276.891,113.609 279.224,113.609 281.5,114C 277.948,110.781 274.115,107.948 270,105.5C 269.506,103.866 269.34,102.199 269.5,100.5 Z M 291.5,112.5 C 292.404,113.209 292.737,114.209 292.5,115.5C 288.995,115.306 288.662,114.306 291.5,112.5 Z M 295.5,114.5 C 297.332,115.14 297.665,116.14 296.5,117.5C 295.614,116.675 295.281,115.675 295.5,114.5 Z"/></g>
<g><path style="opacity:0.617" fill="#030303" d="M 44.5,115.5 C 43.5028,115.53 42.8361,115.03 42.5,114C 41.0875,108.451 41.2542,102.951 43,97.5C 43.5613,96.9781 44.228,96.6448 45,96.5C 49.9851,100.989 54.4851,105.989 58.5,111.5C 57.3137,114.603 55.9803,117.603 54.5,120.5C 53.7285,118.138 52.8952,115.804 52,113.5C 50.9505,114.517 49.7839,114.684 48.5,114C 45.1465,108.901 43.8131,109.401 44.5,115.5 Z M 44.5,99.5 C 47.8017,102.974 50.9684,106.641 54,110.5C 54.6877,111.332 54.521,111.998 53.5,112.5C 52.5846,110.02 51.0846,109.353 49,110.5C 47.9148,109.707 46.7481,109.04 45.5,108.5C 44.5159,105.572 44.1826,102.572 44.5,99.5 Z"/></g>
<g><path style="opacity:1" fill="#072610" d="M 88.5,91.5 C 87.6267,93.8863 86.1267,95.8863 84,97.5C 83.6667,98.8333 83.3333,100.167 83,101.5C 79.5227,103.64 77.1894,106.64 76,110.5C 75.3292,111.252 74.4959,111.586 73.5,111.5C 77.0519,103.721 82.0519,97.0548 88.5,91.5 Z"/></g>
<g><path style="opacity:1" fill="#032f13" d="M 127.5,103.5 C 128.117,103.611 128.617,103.944 129,104.5C 129.333,118.833 129.667,133.167 130,147.5C 130.738,150.648 132.238,153.315 134.5,155.5C 136.691,156.869 139.025,157.869 141.5,158.5C 140.903,159.139 140.07,159.472 139,159.5C 136.46,158.815 133.96,157.981 131.5,157C 130.167,156.333 130.167,155.667 131.5,155C 130.672,154.085 129.672,153.419 128.5,153C 128.833,152.667 129.167,152.333 129.5,152C 127.953,149.227 126.953,146.227 126.5,143C 129.088,140.232 128.755,138.232 125.5,137C 127.833,135.667 128.833,133.667 128.5,131C 127.927,122.604 127.261,114.271 126.5,106C 127.252,105.329 127.586,104.496 127.5,103.5 Z"/></g>
<g><path style="opacity:0.548" fill="#052a11" d="M 188.5,92.5 C 187.657,95.5162 186.157,98.1829 184,100.5C 183.667,113.167 183.333,125.833 183,138.5C 182.097,139.701 180.931,140.535 179.5,141C 170.5,141.667 161.5,141.667 152.5,141C 151.584,140.626 150.75,140.126 150,139.5C 149.667,127.167 149.333,114.833 149,102.5C 148.487,101.473 147.987,100.473 147.5,99.5C 148.75,99.5774 149.583,100.244 150,101.5C 150.5,113.829 150.667,126.162 150.5,138.5C 159.817,139.752 169.15,139.752 178.5,138.5C 179.242,137.713 180.075,137.047 181,136.5C 182.684,127.188 182.851,117.855 181.5,108.5C 181.122,106.865 180.456,105.365 179.5,104C 182.292,100.625 185.292,96.7915 188.5,92.5 Z M 176.5,100.5 C 176.5,101.167 176.5,101.833 176.5,102.5C 176.5,108.5 176.5,114.5 176.5,120.5C 169.833,120.5 163.167,120.5 156.5,120.5C 156.5,113.833 156.5,107.167 156.5,100.5C 163.167,100.5 169.833,100.5 176.5,100.5 Z"/></g>
<g><path style="opacity:1" fill="#062a11" d="M 112.5,145.5 C 114.348,140.976 117.348,137.31 121.5,134.5C 122.665,126.521 122.832,118.521 122,110.5C 118.594,112.756 115.094,114.756 111.5,116.5C 114.017,111.092 118.351,108.758 124.5,109.5C 124.405,117.501 124.405,125.335 124.5,133C 123.683,134.49 122.85,135.99 122,137.5C 118.279,139.738 115.113,142.405 112.5,145.5 Z"/></g>
<g><path style="opacity:0.694" fill="#030303" d="M 44.5,115.5 C 46.1992,115.34 47.8659,115.506 49.5,116C 52.3099,119.047 51.6432,120.38 47.5,120C 45.8588,118.871 44.8588,117.371 44.5,115.5 Z"/></g>
<g><path style="opacity:0.997" fill="#052711" d="M 220.5,116.5 C 225.04,116.708 227.707,119.041 228.5,123.5C 225.808,121.138 223.141,118.804 220.5,116.5 Z"/></g>
<g><path style="opacity:0.694" fill="#020202" d="M 44.5,121.5 C 47.1873,121.336 49.854,121.503 52.5,122C 54.1842,124.786 53.5175,126.62 50.5,127.5C 47.4262,126.698 44.4262,125.698 41.5,124.5C 42.7701,123.712 43.7701,122.712 44.5,121.5 Z"/></g>
<g><path style="opacity:0.992" fill="#052911" d="M 107.5,119.5 C 104.538,122.964 101.371,126.297 98,129.5C 95.4731,133.896 92.9731,138.229 90.5,142.5C 90.5079,139.455 90.8413,136.455 91.5,133.5C 92.552,133.649 93.552,133.483 94.5,133C 94.1667,132.667 93.8333,132.333 93.5,132C 95.8267,129.858 97.4934,127.358 98.5,124.5C 101.283,122.605 104.283,120.938 107.5,119.5 Z"/></g>
<g><path style="opacity:0.978" fill="#062911" d="M 261.5,115.5 C 266.594,124.108 269.927,133.442 271.5,143.5C 267.05,134.618 263.716,125.284 261.5,115.5 Z"/></g>
<g><path style="opacity:0.955" fill="#062910" d="M 210.5,116.5 C 210.334,122.176 210.501,127.843 211,133.5C 216.898,138.636 220.731,144.97 222.5,152.5C 221.5,152.5 220.5,152.5 219.5,152.5C 219.123,146.622 216.623,141.955 212,138.5C 211.667,138.833 211.333,139.167 211,139.5C 210.71,137.956 210.044,136.623 209,135.5C 208.793,128.987 209.293,122.654 210.5,116.5 Z"/></g>
<g><path style="opacity:0.88" fill="#072911" d="M 72.5,113.5 C 71.4652,117.493 70.2985,121.493 69,125.5C 68.3333,126.167 67.6667,126.833 67,127.5C 65.2967,133.004 63.9633,138.671 63,144.5C 62.6174,145.056 62.1174,145.389 61.5,145.5C 63.0325,134.006 66.6991,123.339 72.5,113.5 Z"/></g>
<g><path style="opacity:1" fill="#062b11" d="M 228.5,123.5 C 230.179,123.892 231.846,124.392 233.5,125C 239.196,131.731 243.196,139.398 245.5,148C 244.863,150.243 244.53,152.576 244.5,155C 244.581,157.625 245.248,159.959 246.5,162C 244.699,162.317 244.366,162.984 245.5,164C 243.628,167.248 242.462,170.748 242,174.5C 240.583,176.398 239.083,178.064 237.5,179.5C 247.655,158.624 244.655,139.957 228.5,123.5 Z"/></g>
<g><path style="opacity:0.412" fill="#082311" d="M 90.5,143.5 C 90.1417,146.689 89.475,149.689 88.5,152.5C 87.9455,148.988 88.6122,145.988 90.5,143.5 Z"/></g>
<g><path style="opacity:0.485" fill="#020202" d="M 295.5,154.5 C 301.267,155.621 302.934,158.954 300.5,164.5C 292.888,167.744 289.721,165.077 291,156.5C 292.183,155.269 293.349,155.269 294.5,156.5C 291.394,160.7 292.394,162.867 297.5,163C 299.421,161.759 299.754,160.259 298.5,158.5C 297.833,159.167 297.167,159.833 296.5,160.5C 295.534,158.604 295.201,156.604 295.5,154.5 Z"/></g>
<g><path style="opacity:0.653" fill="#030302" d="M 36.5,160.5 C 30.8206,164.123 28.4873,162.456 29.5,155.5C 30.8221,155.67 31.9887,155.337 33,154.5C 30.5614,160.113 31.3947,160.613 35.5,156C 39.8515,155.521 41.1849,157.355 39.5,161.5C 37.9483,162.798 36.9483,162.465 36.5,160.5 Z M 36.5,160.5 C 36.7828,159.711 37.2828,159.044 38,158.5C 38.5281,159.816 38.0281,160.483 36.5,160.5 Z"/></g>
<g><path style="opacity:0.551" fill="#072910" d="M 207.5,99.5 C 207.435,101.696 206.768,103.696 205.5,105.5C 205.167,111.833 204.833,118.167 204.5,124.5C 204.653,133.9 204.986,143.067 205.5,152C 203.176,155.257 200.009,157.424 196,158.5C 177.781,157.184 159.614,157.184 141.5,158.5C 139.025,157.869 136.691,156.869 134.5,155.5C 155.136,156.632 175.803,156.799 196.5,156C 200,155.167 202.167,153 203,149.5C 203.333,134.5 203.667,119.5 204,104.5C 205.189,102.767 206.356,101.1 207.5,99.5 Z"/></g>
<g><path style="opacity:1" fill="#042911" d="M 271.5,145.5 C 274.338,159.569 274.005,173.569 270.5,187.5C 271.388,173.522 271.722,159.522 271.5,145.5 Z"/></g>
<g><path style="opacity:1" fill="#042a11" d="M 61.5,146.5 C 61.5431,157.513 61.8765,168.346 62.5,179C 62.3158,180.376 61.6491,181.209 60.5,181.5C 60.0561,175.679 59.7228,169.846 59.5,164C 59.3905,157.933 60.0571,152.1 61.5,146.5 Z"/></g>
<g><path style="opacity:0.635" fill="#03210d" d="M 12.5,149.5 C 12.4748,162.179 12.8082,174.845 13.5,187.5C 12.0402,179.885 11.3735,172.051 11.5,164C 11.5007,158.988 11.8341,154.155 12.5,149.5 Z"/></g>
<g><path style="opacity:0.62" fill="#030302" d="M 29.5,163.5 C 32.5173,165.702 35.684,165.702 39,163.5C 39.6667,165.5 39.6667,167.5 39,169.5C 36.1993,168.205 33.3659,168.205 30.5,169.5C 29.5344,167.604 29.2011,165.604 29.5,163.5 Z"/></g>
<g><path style="opacity:1" fill="#082410" d="M 222.5,164.5 C 222.008,166.819 221.008,168.819 219.5,170.5C 219.34,168.801 219.506,167.134 220,165.5C 220.671,164.748 221.504,164.414 222.5,164.5 Z"/></g>
<g><path style="opacity:1" fill="#062910" d="M 111.5,147.5 C 111.364,150.35 111.031,153.183 110.5,156C 111.539,159.117 112.373,162.284 113,165.5C 116.147,168.157 118.647,171.323 120.5,175C 121.448,175.483 122.448,175.649 123.5,175.5C 123.5,176.833 123.5,178.167 123.5,179.5C 111.042,171.93 107.042,161.263 111.5,147.5 Z"/></g>
<g><path style="opacity:0.578" fill="#030303" d="M 32.5,170.5 C 35.6516,169.959 38.1516,170.959 40,173.5C 40.3773,177.019 40.8773,180.519 41.5,184C 41.3304,186.527 40.3304,187.027 38.5,185.5C 37.1556,188.822 38.1556,189.822 41.5,188.5C 42.6534,191.446 43.6534,194.446 44.5,197.5C 42.187,198.273 39.8537,198.94 37.5,199.5C 36.2704,203.083 37.6038,204.249 41.5,203C 42.646,202.355 43.646,201.522 44.5,200.5C 45.3567,201.736 46.0234,203.069 46.5,204.5C 44.1234,204.196 41.6234,204.529 39,205.5C 34.7941,204.472 33.4608,201.805 35,197.5C 36.897,195.984 39.0637,195.317 41.5,195.5C 41.719,194.325 41.3857,193.325 40.5,192.5C 37.9084,192.936 35.5751,193.936 33.5,195.5C 32.6816,193.892 32.0149,192.225 31.5,190.5C 33.1173,190.331 34.784,189.997 36.5,189.5C 35.6305,186.237 34.2972,185.904 32.5,188.5C 30.8489,186.598 30.5155,184.598 31.5,182.5C 34.3313,183.796 36.998,183.463 39.5,181.5C 38.624,180.749 37.624,180.249 36.5,180C 39.4141,177.329 39.0807,175.163 35.5,173.5C 30.6087,175.35 30.2754,177.85 34.5,181C 33.2068,181.49 31.8734,181.657 30.5,181.5C 28.6639,177.351 29.3306,173.685 32.5,170.5 Z"/></g>
<g><path style="opacity:1" fill="#062a10" d="M 88.5,152.5 C 88.4793,159.376 89.646,166.043 92,172.5C 95.0221,177.669 98.1888,182.669 101.5,187.5C 97.447,185.935 94.947,182.935 94,178.5C 93.2569,180.645 92.4235,180.811 91.5,179C 93.1408,177.354 92.8075,176.354 90.5,176C 90.9574,175.586 91.2907,175.086 91.5,174.5C 87.6544,167.405 86.6544,160.071 88.5,152.5 Z"/></g>
<g><path style="opacity:1" fill="#06240e" d="M 320.5,149.5 C 321.658,158.991 321.825,168.658 321,178.5C 320.704,183.728 319.871,188.728 318.5,193.5C 318.784,195.415 318.451,197.081 317.5,198.5C 317.5,197.5 317.5,196.5 317.5,195.5C 315.801,195.527 314.467,196.194 313.5,197.5C 315.258,187.756 316.591,178.089 317.5,168.5C 317.335,171.85 317.502,175.183 318,178.5C 318.414,178.043 318.914,177.709 319.5,177.5C 320.498,168.19 320.832,158.857 320.5,149.5 Z"/></g>
<g><path style="opacity:0.559" fill="#030303" d="M 296.5,199.5 C 295.364,206.575 293.03,213.242 289.5,219.5C 287.481,216.496 284.814,215.496 281.5,216.5C 283.118,218.316 285.118,219.649 287.5,220.5C 288.386,221.325 288.719,222.325 288.5,223.5C 285.529,223.435 282.862,224.269 280.5,226C 281.993,227.368 283.493,227.535 285,226.5C 284.758,230.289 283.258,233.623 280.5,236.5C 278.424,234.712 276.257,233.046 274,231.5C 273.329,232.252 272.496,232.586 271.5,232.5C 272.759,225.82 276.759,221.987 283.5,221C 282.007,219.632 280.507,219.465 279,220.5C 279.7,216.401 281.033,212.401 283,208.5C 285.988,209.148 289.155,209.148 292.5,208.5C 290.207,206.448 287.707,205.781 285,206.5C 284.833,205.833 284.667,205.167 284.5,204.5C 286.385,199.249 287.885,193.916 289,188.5C 291.267,187.065 293.267,187.398 295,189.5C 299.808,187.143 299.641,185.476 294.5,184.5C 293.106,184.621 291.772,184.954 290.5,185.5C 289.548,181.839 289.715,178.172 291,174.5C 292.41,173.213 293.91,172.046 295.5,171C 294.101,170.405 292.768,170.572 291.5,171.5C 290.201,169.693 290.368,168.027 292,166.5C 294.908,168.025 298.074,169.025 301.5,169.5C 299.644,172.19 297.311,174.356 294.5,176C 296.441,176.743 298.274,176.576 300,175.5C 300.667,176.833 300.667,178.167 300,179.5C 297.281,178.556 294.448,178.223 291.5,178.5C 291.5,179.5 291.5,180.5 291.5,181.5C 294.249,181.726 296.916,181.393 299.5,180.5C 299.833,181.167 300.167,181.833 300.5,182.5C 298.737,188.373 297.404,194.04 296.5,199.5 Z M 290.5,190.5 C 292.225,190.843 292.725,191.843 292,193.5C 289.842,192.95 289.342,191.95 290.5,190.5 Z M 296.5,199.5 C 293.092,200.172 290.425,199.172 288.5,196.5C 288.667,196.167 288.833,195.833 289,195.5C 290.734,196.249 292.567,196.749 294.5,197C 295.381,197.708 296.047,198.542 296.5,199.5 Z M 287.5,199.5 C 289.465,199.948 289.798,200.948 288.5,202.5C 287.614,201.675 287.281,200.675 287.5,199.5 Z M 291.5,201.5 C 294.907,201.125 295.407,202.125 293,204.5C 291.961,203.756 291.461,202.756 291.5,201.5 Z M 284.5,209.5 C 287.125,210.466 287.125,211.466 284.5,212.5C 283.913,211.767 283.913,210.767 284.5,209.5 Z M 289.5,210.5 C 290.797,211.849 290.63,213.182 289,214.5C 287.413,213.154 287.58,211.821 289.5,210.5 Z M 276.5,226.5 C 278.386,227.361 280.22,228.361 282,229.5C 282.563,230.725 282.23,231.725 281,232.5C 279.255,231.044 277.422,229.711 275.5,228.5C 275.863,227.817 276.196,227.15 276.5,226.5 Z"/></g>
<g><path style="opacity:1" fill="#08210c" d="M 219.5,170.5 C 218.559,172.466 217.559,174.466 216.5,176.5C 220.188,179.521 223.521,182.854 226.5,186.5C 222.198,183.864 218.531,180.531 215.5,176.5C 215.76,174.813 216.427,173.313 217.5,172C 217.167,171.667 216.833,171.333 216.5,171C 217.448,170.517 218.448,170.351 219.5,170.5 Z"/></g>
<g><path style="opacity:0.584" fill="#0b210f" d="M 210.5,182.5 C 213.33,180.965 214.663,181.965 214.5,185.5C 213.167,184.5 211.833,183.5 210.5,182.5 Z"/></g>
<g><path style="opacity:0.61" fill="#042810" d="M 199.5,164.5 C 202.536,165.362 204.869,167.195 206.5,170C 205.874,170.75 205.374,171.584 205,172.5C 204.333,186.167 204.333,199.833 205,213.5C 207.381,215.555 208.214,217.889 207.5,220.5C 206.356,218.9 205.189,217.233 204,215.5C 203.667,200.167 203.333,184.833 203,169.5C 202.003,167.677 200.836,166.01 199.5,164.5 Z"/></g>
<g><path style="opacity:1" fill="#033111" d="M 318.5,193.5 C 317.425,194.562 316.425,194.562 315.5,193.5C 317.776,177.688 318.776,177.688 318.5,193.5 Z"/></g>
<g><path style="opacity:1" fill="#042e12" d="M 237.5,179.5 C 237.477,181.927 236.977,184.26 236,186.5C 233.707,188.49 231.374,190.49 229,192.5C 228.506,194.134 228.34,195.801 228.5,197.5C 232.562,197.869 234.229,199.869 233.5,203.5C 228.833,199.5 224.5,195.167 220.5,190.5C 222.558,191.933 224.892,192.6 227.5,192.5C 227.167,190.5 226.833,188.5 226.5,186.5C 227.794,187.29 228.961,188.29 230,189.5C 232.748,186.266 235.248,182.932 237.5,179.5 Z"/></g>
<g><path style="opacity:0.81" fill="#072911" d="M 101.5,187.5 C 106.059,190.939 110.392,194.606 114.5,198.5C 113.883,198.611 113.383,198.944 113,199.5C 108.239,196.243 104.406,192.243 101.5,187.5 Z"/></g>
<g><path style="opacity:1" fill="#062c12" d="M 61.5,182.5 C 63.5885,186.116 65.0885,190.116 66,194.5C 66.5,195.667 67.3333,196.5 68.5,197C 68.1667,197.333 67.8333,197.667 67.5,198C 67.9278,200.629 68.9278,202.962 70.5,205C 69.6634,206.011 69.33,207.178 69.5,208.5C 65.0513,200.481 62.3846,191.814 61.5,182.5 Z"/></g>
<g><path style="opacity:0.804" fill="#072610" d="M 210.5,184.5 C 210.5,191.167 210.5,197.833 210.5,204.5C 217.167,204.5 223.833,204.5 230.5,204.5C 223.687,205.491 216.687,205.825 209.5,205.5C 209.175,198.313 209.509,191.313 210.5,184.5 Z"/></g>
<g><path style="opacity:1" fill="#052b10" d="M 123.5,180.5 C 124.285,189.014 124.952,197.681 125.5,206.5C 124.178,206.33 123.011,206.663 122,207.5C 120.635,204.338 118.802,201.671 116.5,199.5C 118.781,200.608 120.948,201.942 123,203.5C 123.5,195.841 123.666,188.174 123.5,180.5 Z"/></g>
<g><path style="opacity:0.578" fill="#030303" d="M 36.5,207.5 C 40.4994,208.035 44.4994,208.701 48.5,209.5C 48.7093,210.086 49.0426,210.586 49.5,211C 46.9832,213.349 44.6499,215.849 42.5,218.5C 45.6422,219.281 48.3088,218.281 50.5,215.5C 51.4147,216.328 52.0814,217.328 52.5,218.5C 51.2479,220.735 50.7479,223.069 51,225.5C 54.2464,221.454 55.5797,222.121 55,227.5C 54.586,227.043 54.086,226.709 53.5,226.5C 51.0207,228.076 48.354,229.076 45.5,229.5C 46.0708,226.523 47.0708,223.69 48.5,221C 46.3981,220.717 44.7315,221.55 43.5,223.5C 40.8785,220.607 39.7118,217.274 40,213.5C 40.9138,214.654 41.7471,214.487 42.5,213C 41.4158,210.175 40.2492,210.008 39,212.5C 37.6283,211.09 36.795,209.423 36.5,207.5 Z"/></g>
<g><path style="opacity:0.851" fill="#072910" d="M 267.5,198.5 C 264.816,207.532 260.816,215.865 255.5,223.5C 255.34,221.801 255.506,220.134 256,218.5C 260.305,213.634 262.972,207.968 264,201.5C 264.759,199.937 265.926,198.937 267.5,198.5 Z"/></g>
<g><path style="opacity:1" fill="#062b13" d="M 69.5,208.5 C 70.8068,209.153 72.1401,209.82 73.5,210.5C 73.8626,213.748 75.5293,215.914 78.5,217C 78.1667,217.333 77.8333,217.667 77.5,218C 78.5541,220.382 79.2208,222.882 79.5,225.5C 74.9098,220.665 71.5765,214.998 69.5,208.5 Z"/></g>
<g><path style="opacity:1" fill="#052c11" d="M 199.5,164.5 C 194.213,163.658 188.88,163.324 183.5,163.5C 183.5,183.833 183.5,204.167 183.5,224.5C 192.017,224.826 200.35,224.493 208.5,223.5C 212.333,224.563 212.333,225.396 208.5,226C 209.654,226.914 209.487,227.747 208,228.5C 205.446,227.229 202.613,226.562 199.5,226.5C 195.346,226.491 191.513,227.491 188,229.5C 186.215,228.76 184.382,228.093 182.5,227.5C 181.459,229.991 180.626,229.991 180,227.5C 179.086,228.654 178.253,228.487 177.5,227C 170.64,226.261 163.807,226.428 157,227.5C 153.224,225.398 149.557,225.398 146,227.5C 139.487,226.185 132.987,226.185 126.5,227.5C 125.459,225.009 124.626,225.009 124,227.5C 123.26,226.251 123.427,225.251 124.5,224.5C 132.833,224.5 141.167,224.5 149.5,224.5C 149.5,204.167 149.5,183.833 149.5,163.5C 144.087,163.229 138.754,163.729 133.5,165C 132.299,165.903 131.465,167.069 131,168.5C 129.713,184.1 129.046,199.766 129,215.5C 127.741,218.356 126.241,221.023 124.5,223.5C 123.539,221.735 123.205,219.735 123.5,217.5C 124.675,217.719 125.675,217.386 126.5,216.5C 127.213,214.224 127.713,211.891 128,209.5C 128.776,196.814 128.609,184.147 127.5,171.5C 128.795,167.576 130.629,163.909 133,160.5C 135.57,161.416 138.237,162.082 141,162.5C 143.715,161.492 146.215,160.825 148.5,160.5C 149.524,161.853 150.857,162.52 152.5,162.5C 150.702,182.496 150.036,202.83 150.5,223.5C 151.833,223.5 153.167,223.5 154.5,223.5C 154.333,203.831 154.5,184.164 155,164.5C 161.211,162.566 167.711,161.899 174.5,162.5C 174.5,161.5 174.5,160.5 174.5,159.5C 175.5,159.5 176.5,159.5 177.5,159.5C 178.346,180.822 178.679,202.155 178.5,223.5C 179.5,223.5 180.5,223.5 181.5,223.5C 181.815,204.299 181.482,185.133 180.5,166C 181.292,164.04 182.625,162.54 184.5,161.5C 189.89,161.783 194.89,162.783 199.5,164.5 Z M 156.5,163.5 C 156.5,183.833 156.5,204.167 156.5,224.5C 163.167,224.5 169.833,224.5 176.5,224.5C 176.5,204.167 176.5,183.833 176.5,163.5C 169.833,163.5 163.167,163.5 156.5,163.5 Z"/></g>
<g><path style="opacity:1" fill="#072911" d="M 91.5,240.5 C 88.1184,237.433 84.9517,234.099 82,230.5C 80.9055,228.922 80.0722,227.255 79.5,225.5C 80.1174,225.389 80.6174,225.056 81,224.5C 81.7724,225.849 82.9391,226.682 84.5,227C 84.1667,227.333 83.8333,227.667 83.5,228C 85.0488,229.214 86.2155,230.714 87,232.5C 91.1744,234.073 92.6744,236.74 91.5,240.5 Z"/></g>
<g><path style="opacity:1" fill="#062910" d="M 255.5,223.5 C 252.229,229.102 248.229,234.102 243.5,238.5C 243.966,236.799 243.966,235.299 243.5,234C 245.204,231.453 247.537,229.953 250.5,229.5C 249.848,225.44 251.515,223.44 255.5,223.5 Z"/></g>
<g><path style="opacity:0.524" fill="#030303" d="M 271.5,232.5 C 272.091,233.151 272.757,233.818 273.5,234.5C 268.171,237.152 268.171,239.819 273.5,242.5C 274.5,242.167 275.167,241.5 275.5,240.5C 274.726,239.289 273.893,239.289 273,240.5C 273.677,233.764 275.51,233.264 278.5,239C 276.903,244.466 273.569,246.133 268.5,244C 265.488,239.247 266.488,235.414 271.5,232.5 Z"/></g>
<g><path style="opacity:0.575" fill="#020202" d="M 72.5,249.5 C 69.3389,250.47 66.5056,252.137 64,254.5C 63.3076,253.975 62.8076,253.308 62.5,252.5C 63.5617,249.897 63.7284,247.23 63,244.5C 61.3829,245.851 60.2162,247.518 59.5,249.5C 58.6184,248.24 57.6184,247.074 56.5,246C 59.5524,245.118 61.8858,243.284 63.5,240.5C 61.8767,239.524 60.5433,240.024 59.5,242C 53.1429,243.481 50.6429,240.981 52,234.5C 54.3093,232.798 56.476,231.298 58.5,230C 59.2931,231.085 59.9598,232.252 60.5,233.5C 58.3761,234.458 56.3761,235.625 54.5,237C 53.6315,238.465 54.1315,239.631 56,240.5C 58.9152,239.917 60.9152,238.25 62,235.5C 65.8831,239.282 67.5497,243.948 67,249.5C 68.8335,244.333 70.6668,244.333 72.5,249.5 Z"/></g>
<g><path style="opacity:1" fill="#062911" d="M 241.5,240.5 C 236.263,246.122 230.263,250.789 223.5,254.5C 223.5,253.5 223.5,252.5 223.5,251.5C 226.588,250.282 229.588,248.782 232.5,247C 233.88,245.676 234.214,244.343 233.5,243C 235.868,242.21 238.034,241.044 240,239.5C 240.765,239.57 241.265,239.903 241.5,240.5 Z"/></g>
<g><path style="opacity:0.622" fill="#040404" d="M 263.5,257.5 C 262.422,254.092 260.089,252.092 256.5,251.5C 256.414,250.504 256.748,249.671 257.5,249C 260.101,248.08 262.768,247.413 265.5,247C 260.754,245.725 260.421,243.891 264.5,241.5C 266.296,244.421 268.63,246.921 271.5,249C 268.362,250.244 265.028,250.911 261.5,251C 262.851,252.617 264.518,253.784 266.5,254.5C 266.121,256.213 265.121,257.213 263.5,257.5 Z"/></g>
<g><path style="opacity:1" fill="#052a10" d="M 92.5,241.5 C 95.1267,242.105 97.7934,242.605 100.5,243C 99.269,244.183 99.269,245.349 100.5,246.5C 104.573,247.551 107.573,250.217 109.5,254.5C 103.255,250.883 97.588,246.549 92.5,241.5 Z"/></g>
<g><path style="opacity:0.584" fill="#030303" d="M 256.5,251.5 C 257.603,254.936 259.936,256.936 263.5,257.5C 261.905,260.931 259.405,263.598 256,265.5C 255.139,261.802 252.972,259.136 249.5,257.5C 251.259,254.734 253.593,252.734 256.5,251.5 Z M 254.5,254.5 C 256.973,254.947 257.14,255.947 255,257.5C 253.272,256.648 253.105,255.648 254.5,254.5 Z M 258.5,257.5 C 260.934,258.354 260.767,259.354 258,260.5C 256.205,259.281 256.372,258.281 258.5,257.5 Z"/></g>
<g><path style="opacity:1" fill="#042f11" d="M 153.5,242.5 C 155.233,243.008 155.566,243.841 154.5,245C 156.569,245.324 156.902,246.158 155.5,247.5C 155.808,248.308 156.308,248.975 157,249.5C 157.191,247.292 157.691,245.292 158.5,243.5C 158.833,247.5 159.167,247.5 159.5,243.5C 160.167,243.5 160.5,243.167 160.5,242.5C 163.2,240.233 166.2,239.9 169.5,241.5C 169.5,241.833 169.5,242.167 169.5,242.5C 169.5,242.833 169.5,243.167 169.5,243.5C 168.833,243.5 168.5,243.833 168.5,244.5C 168.5,244.833 168.5,245.167 168.5,245.5C 167.596,246.209 167.263,247.209 167.5,248.5C 167.285,250.179 167.952,251.179 169.5,251.5C 169.833,251.5 170.167,251.5 170.5,251.5C 170.833,251.5 171.167,251.5 171.5,251.5C 172.167,251.5 172.5,251.167 172.5,250.5C 172.833,250.5 173.167,250.5 173.5,250.5C 174.721,249.972 175.887,249.305 177,248.5C 177.464,249.094 177.631,249.761 177.5,250.5C 177.5,251.167 177.833,251.5 178.5,251.5C 178.833,251.5 179.167,251.5 179.5,251.5C 180.492,251.672 181.158,251.338 181.5,250.5C 182.434,249.432 182.768,248.099 182.5,246.5C 181.791,245.596 180.791,245.263 179.5,245.5C 179.351,244.448 179.517,243.448 180,242.5C 180.893,243.711 181.726,243.711 182.5,242.5C 181.042,241.218 179.708,241.218 178.5,242.5C 177.662,242.842 177.328,243.508 177.5,244.5C 174.342,247.059 173.009,246.059 173.5,241.5C 176.447,239.816 179.447,239.149 182.5,239.5C 185.512,245.23 185.012,250.563 181,255.5C 178.901,254.534 177.068,253.2 175.5,251.5C 173.831,252.671 172.331,254.004 171,255.5C 169.413,254.33 167.747,253.33 166,252.5C 164.062,254.978 161.895,255.145 159.5,253C 160.624,252.751 161.624,252.251 162.5,251.5C 161.042,250.218 159.708,250.218 158.5,251.5C 156.254,251.936 154.087,252.603 152,253.5C 151.586,253.043 151.086,252.709 150.5,252.5C 149.833,253.5 149.167,254.5 148.5,255.5C 148.034,250.118 147.701,244.784 147.5,239.5C 149.46,240.138 151.293,240.138 153,239.5C 153.483,240.448 153.649,241.448 153.5,242.5 Z M 182.5,246.5 C 182.768,248.099 182.434,249.432 181.5,250.5C 181.67,249.178 181.337,248.011 180.5,247C 181.094,246.536 181.761,246.369 182.5,246.5 Z M 168.5,245.5 C 169.815,246.895 169.481,247.895 167.5,248.5C 167.263,247.209 167.596,246.209 168.5,245.5 Z M 153.5,242.5 C 152.127,242.343 150.793,242.51 149.5,243C 152.167,245.667 152.167,248.333 149.5,251C 151.5,251.667 153.5,251.667 155.5,251C 153.679,248.544 153.012,245.711 153.5,242.5 Z"/></g>
<g><path style="opacity:0.894" fill="#05260e" d="M 169.5,242.5 C 169.5,242.167 169.5,241.833 169.5,241.5C 170.833,241.5 172.167,241.5 173.5,241.5C 173.009,246.059 174.342,247.059 177.5,244.5C 177.369,245.239 177.536,245.906 178,246.5C 178.49,245.207 178.657,243.873 178.5,242.5C 179.708,241.218 181.042,241.218 182.5,242.5C 181.726,243.711 180.893,243.711 180,242.5C 179.517,243.448 179.351,244.448 179.5,245.5C 180.791,245.263 181.791,245.596 182.5,246.5C 181.761,246.369 181.094,246.536 180.5,247C 181.337,248.011 181.67,249.178 181.5,250.5C 180.508,250.328 179.842,250.662 179.5,251.5C 179.167,251.5 178.833,251.5 178.5,251.5C 177.833,251.5 177.5,251.167 177.5,250.5C 177.631,249.761 177.464,249.094 177,248.5C 175.887,249.305 174.721,249.972 173.5,250.5C 173.167,245.167 172.833,245.167 172.5,250.5C 171.833,250.5 171.5,250.833 171.5,251.5C 171.167,251.5 170.833,251.5 170.5,251.5C 170.167,250.167 169.833,250.167 169.5,251.5C 167.952,251.179 167.285,250.179 167.5,248.5C 169.481,247.895 169.815,246.895 168.5,245.5C 168.5,245.167 168.5,244.833 168.5,244.5C 169.167,244.5 169.5,244.167 169.5,243.5C 170.833,243.167 170.833,242.833 169.5,242.5 Z"/></g>
<g><path style="opacity:0.902" fill="#06220d" d="M 114.5,257.5 C 117.313,257.025 119.313,258.025 120.5,260.5C 118.181,260.008 116.181,259.008 114.5,257.5 Z"/></g>
<g><path style="opacity:1" fill="#062810" d="M 223.5,254.5 C 215.652,260.088 206.985,264.088 197.5,266.5C 197.5,265.5 197.5,264.5 197.5,263.5C 204.477,262.283 211.144,260.283 217.5,257.5C 217.5,256.5 217.5,255.5 217.5,254.5C 219.5,254.5 221.5,254.5 223.5,254.5 Z"/></g>
<g><path style="opacity:0.598" fill="#051c09" d="M 120.5,260.5 C 122.553,260.402 124.22,261.069 125.5,262.5C 123.447,262.598 121.78,261.931 120.5,260.5 Z"/></g>
<g><path style="opacity:0.556" fill="#020202" d="M 72.5,249.5 C 73.2389,249.369 73.9056,249.536 74.5,250C 76.31,252.644 78.31,255.144 80.5,257.5C 80.1543,258.696 79.6543,258.696 79,257.5C 78.6905,258.766 78.1905,259.933 77.5,261C 79.7125,260.743 81.7125,260.076 83.5,259C 88.7224,263.559 94.2224,267.725 100,271.5C 100.494,273.134 100.66,274.801 100.5,276.5C 99.5,276.5 98.5,276.5 97.5,276.5C 97.9202,278.674 97.9202,280.674 97.5,282.5C 95.0598,280.891 93.8931,278.557 94,275.5C 92.7163,276.572 92.3829,277.905 93,279.5C 87.8764,277.02 83.3764,273.687 79.5,269.5C 81.8333,267.833 83.8333,265.833 85.5,263.5C 84.7579,262.713 83.9246,262.047 83,261.5C 80.1041,263.533 76.9374,264.866 73.5,265.5C 74.6563,261.555 75.1563,257.555 75,253.5C 72.6255,255.539 70.6255,257.872 69,260.5C 67.647,259.315 66.4803,257.981 65.5,256.5C 68.8699,255.13 71.2032,252.797 72.5,249.5 Z M 87.5,265.5 C 91.0595,267.283 91.0595,268.283 87.5,268.5C 87.5,267.5 87.5,266.5 87.5,265.5 Z M 91.5,268.5 C 92.3764,268.369 93.0431,268.702 93.5,269.5C 92.396,271.389 91.0627,273.055 89.5,274.5C 88.4117,271.992 89.0784,269.992 91.5,268.5 Z M 84.5,269.5 C 85.9953,269.415 86.9953,270.081 87.5,271.5C 85.6043,272.639 84.6043,271.973 84.5,269.5 Z M 95.5,271.5 C 97.9732,271.947 98.1399,272.947 96,274.5C 95.5172,273.552 95.3505,272.552 95.5,271.5 Z"/></g>
<g><path style="opacity:0.543" fill="#030303" d="M 247.5,262.5 C 248.774,263.189 248.774,264.023 247.5,265C 248.071,266.205 248.738,267.372 249.5,268.5C 251.214,267.391 251.881,268.058 251.5,270.5C 248.886,270.277 247.219,271.444 246.5,274C 244.888,274.72 243.388,274.554 242,273.5C 241.767,271.22 240.934,269.22 239.5,267.5C 239.833,266.833 240.167,266.167 240.5,265.5C 243.102,264.868 245.436,263.868 247.5,262.5 Z M 244.5,265.5 C 245.289,265.783 245.956,266.283 246.5,267C 245.184,267.528 244.517,267.028 244.5,265.5 Z"/></g>
<g><path style="opacity:1" fill="#052b0f" d="M 317.5,198.5 C 303.083,256.42 267.416,294.587 210.5,313C 203.283,315.138 195.95,316.638 188.5,317.5C 189.641,316.661 190.974,315.994 192.5,315.5C 193.521,314.998 193.688,314.332 193,313.5C 188.934,314.464 184.767,314.797 180.5,314.5C 240.532,306.065 282.699,274.065 307,218.5C 309.482,211.558 311.648,204.558 313.5,197.5C 314.467,196.194 315.801,195.527 317.5,195.5C 317.5,196.5 317.5,197.5 317.5,198.5 Z"/></g>
<g><path style="opacity:1" fill="#062a12" d="M 125.5,262.5 C 129.813,262.548 133.813,263.715 137.5,266C 141.222,266.238 144.889,266.738 148.5,267.5C 149.086,267.291 149.586,266.957 150,266.5C 153.01,268.264 156.177,269.597 159.5,270.5C 147.47,270.324 136.137,267.658 125.5,262.5 Z"/></g>
<g><path style="opacity:1" fill="#052c11" d="M 196.5,266.5 C 185.149,270.197 173.483,271.531 161.5,270.5C 163.238,268.566 165.071,268.233 167,269.5C 173.333,268.167 179.667,266.833 186,265.5C 188.926,265.736 192.426,266.069 196.5,266.5 Z"/></g>
<g><path style="opacity:0.588" fill="#030303" d="M 225.5,275.5 C 227.728,272.55 230.728,270.884 234.5,270.5C 234.779,273.6 236.112,276.1 238.5,278C 236.968,280.117 234.968,281.784 232.5,283C 231.5,283.667 230.5,283.667 229.5,283C 230.517,281.951 230.684,280.784 230,279.5C 229.124,277.365 227.624,276.031 225.5,275.5 Z M 232.5,272.5 C 233.737,273.743 233.404,274.743 231.5,275.5C 231.167,275.167 230.833,274.833 230.5,274.5C 231.243,273.818 231.909,273.151 232.5,272.5 Z M 233.5,276.5 C 237.3,276.819 237.466,277.819 234,279.5C 232.272,278.648 232.105,277.648 233.5,276.5 Z"/></g>
<g><path style="opacity:0.636" fill="#030303" d="M 107.5,279.5 C 107.777,285.735 105.277,287.068 100,283.5C 99.3013,281.926 99.6346,280.593 101,279.5C 101.583,281.002 102.416,282.335 103.5,283.5C 103.833,283.167 104.167,282.833 104.5,282.5C 102.604,280.119 102.271,277.619 103.5,275C 106.553,273.928 108.553,274.928 109.5,278C 109.164,279.03 108.497,279.53 107.5,279.5 Z M 107.5,279.5 C 105.915,278.998 105.415,277.998 106,276.5C 107.039,277.244 107.539,278.244 107.5,279.5 Z"/></g>
<g><path style="opacity:0.53" fill="#010101" d="M 225.5,275.5 C 226.641,278.193 225.808,278.86 223,277.5C 219.517,280.384 219.851,282.717 224,284.5C 225.767,283.66 227.101,282.327 228,280.5C 228.798,282.259 228.631,283.926 227.5,285.5C 220.953,288.648 217.786,286.648 218,279.5C 219.654,276.768 222.154,275.435 225.5,275.5 Z"/></g>
<g><path style="opacity:0.562" fill="#020202" d="M 110.5,277.5 C 117.34,280.281 124.34,282.781 131.5,285C 131.132,286.473 131.632,287.973 133,289.5C 134.258,286.945 136.091,286.278 138.5,287.5C 134.605,289.643 132.605,292.643 132.5,296.5C 130.667,295.948 129,295.115 127.5,294C 130.016,291.164 129.849,288.331 127,285.5C 125.582,288.001 124.582,287.668 124,284.5C 121.889,286.828 121.055,289.328 121.5,292C 119.165,292.507 117.165,291.84 115.5,290C 118.689,288.456 119.855,285.956 119,282.5C 118.586,282.957 118.086,283.291 117.5,283.5C 116.742,282.189 115.742,281.689 114.5,282C 113.044,284.266 112.21,286.766 112,289.5C 110.667,288.833 109.333,288.167 108,287.5C 109.078,285.343 110.245,283.01 111.5,280.5C 110.873,279.583 110.539,278.583 110.5,277.5 Z"/></g>
<g><path style="opacity:0.475" fill="#020202" d="M 213.5,279.5 C 215.549,279.706 215.883,280.539 214.5,282C 219.09,291.075 217.256,292.575 209,286.5C 208.221,288.906 209.054,290.573 211.5,291.5C 210.131,293.124 208.464,293.624 206.5,293C 207.219,290.293 206.552,287.793 204.5,285.5C 204.274,288.551 204.274,291.551 204.5,294.5C 201.825,295.851 199.159,296.185 196.5,295.5C 197.416,292.408 196.583,289.741 194,287.5C 193.5,288 193,288.5 192.5,289C 193.009,291.57 194.009,293.903 195.5,296C 194.095,297.269 192.429,297.769 190.5,297.5C 190.797,294.276 190.13,291.276 188.5,288.5C 188.833,288.167 189.167,287.833 189.5,287.5C 195.446,286.222 201.28,284.555 207,282.5C 209.139,283.236 211.139,284.236 213,285.5C 213.309,283.609 212.475,282.275 210.5,281.5C 211.602,280.824 212.602,280.158 213.5,279.5 Z M 199.5,286.5 C 201.973,286.947 202.14,287.947 200,289.5C 198.272,288.648 198.105,287.648 199.5,286.5 Z M 201.5,290.5 C 204.125,291.466 204.125,292.466 201.5,293.5C 200.438,292.575 200.438,291.575 201.5,290.5 Z"/></g>
<g><path style="opacity:0.595" fill="#010101" d="M 143.5,288.5 C 150.981,286.494 154.147,289.161 153,296.5C 150.121,299.442 146.954,299.942 143.5,298C 141.006,294.91 141.006,291.744 143.5,288.5 Z M 146.5,289.5 C 151.341,291.544 151.675,294.211 147.5,297.5C 144.019,295.211 143.685,292.544 146.5,289.5 Z"/></g>
<g><path style="opacity:0.585" fill="#020202" d="M 180.5,288.5 C 183.681,288.002 186.347,288.835 188.5,291C 186.633,291.711 185.133,291.211 184,289.5C 180.667,292.35 180.834,295.017 184.5,297.5C 185.814,296.687 186.981,295.687 188,294.5C 188.49,295.793 188.657,297.127 188.5,298.5C 185.223,298.784 182.057,298.451 179,297.5C 177.058,294.141 177.558,291.141 180.5,288.5 Z"/></g>
<g><path style="opacity:0.592" fill="#020202" d="M 155.5,289.5 C 158.167,289.5 160.833,289.5 163.5,289.5C 163.808,291.924 163.474,294.257 162.5,296.5C 158.781,295.374 158.114,296.207 160.5,299C 160,299.5 159.5,300 159,300.5C 157.601,299.773 156.101,299.273 154.5,299C 156.257,295.93 156.59,292.763 155.5,289.5 Z M 159.5,291.5 C 161.337,291.639 161.67,292.306 160.5,293.5C 159.702,293.043 159.369,292.376 159.5,291.5 Z"/></g>
<g><path style="opacity:0.559" fill="#020202" d="M 169.5,289.5 C 171.5,289.5 173.5,289.5 175.5,289.5C 175.64,291.124 174.973,292.29 173.5,293C 176.481,294.38 177.147,296.546 175.5,299.5C 172.426,301.199 170.092,300.533 168.5,297.5C 170.167,297.5 171.833,297.5 173.5,297.5C 172.086,296.376 170.586,295.376 169,294.5C 168.36,292.735 168.527,291.068 169.5,289.5 Z"/></g>
<g><path style="opacity:1" fill="#032f0f" d="M 188.5,317.5 C 187.391,317.557 186.391,317.89 185.5,318.5C 181.769,317.804 177.935,317.138 174,316.5C 171.787,317.76 169.287,318.426 166.5,318.5C 161.016,318.455 155.683,317.622 150.5,316C 151.416,315.722 152.082,315.222 152.5,314.5C 161.833,314.5 171.167,314.5 180.5,314.5C 184.767,314.797 188.934,314.464 193,313.5C 193.688,314.332 193.521,314.998 192.5,315.5C 190.974,315.994 189.641,316.661 188.5,317.5 Z"/></g>
</svg>
